<svg width="73" height="32" viewBox="0 0 73 32" fill="none" xmlns="http://www.w3.org/2000/svg">
<rect x="8.75" y="0.75" width="63.5" height="30.5" rx="9.25" stroke="white" stroke-width="1.5"/>
<path d="M31.948 10.62C34.426 10.62 35.126 12.972 35.126 15.324C35.126 17.606 34.482 20.168 31.906 20.168C29.386 20.168 28.686 17.774 28.686 15.394C28.686 13.028 29.456 10.62 31.948 10.62ZM31.962 11.67C30.352 11.67 29.988 13.364 29.988 15.394C29.988 17.144 30.296 19.118 31.92 19.118C33.544 19.118 33.838 17.242 33.838 15.338C33.838 13.56 33.53 11.67 31.962 11.67ZM39.823 10.62C42.301 10.62 43.001 12.972 43.001 15.324C43.001 17.606 42.357 20.168 39.781 20.168C37.261 20.168 36.561 17.774 36.561 15.394C36.561 13.028 37.331 10.62 39.823 10.62ZM39.837 11.67C38.227 11.67 37.863 13.364 37.863 15.394C37.863 17.144 38.171 19.118 39.795 19.118C41.419 19.118 41.713 17.242 41.713 15.338C41.713 13.56 41.405 11.67 39.837 11.67ZM47.698 10.62C50.176 10.62 50.876 12.972 50.876 15.324C50.876 17.606 50.232 20.168 47.656 20.168C45.136 20.168 44.436 17.774 44.436 15.394C44.436 13.028 45.206 10.62 47.698 10.62ZM47.712 11.67C46.102 11.67 45.738 13.364 45.738 15.394C45.738 17.144 46.046 19.118 47.67 19.118C49.294 19.118 49.588 17.242 49.588 15.338C49.588 13.56 49.28 11.67 47.712 11.67ZM55.573 10.62C58.051 10.62 58.751 12.972 58.751 15.324C58.751 17.606 58.107 20.168 55.531 20.168C53.011 20.168 52.311 17.774 52.311 15.394C52.311 13.028 53.081 10.62 55.573 10.62ZM55.587 11.67C53.977 11.67 53.613 13.364 53.613 15.394C53.613 17.144 53.921 19.118 55.545 19.118C57.169 19.118 57.463 17.242 57.463 15.338C57.463 13.56 57.155 11.67 55.587 11.67Z" fill="white"/>
<rect width="24" height="24" transform="translate(0 4)" fill="#0053BE"/>
<path d="M19 11H18V10C18 8.3 16.7 7 15 7H5C3.3 7 2 8.3 2 10V22C2 23.7 3.3 25 5 25H19C20.7 25 22 23.7 22 22V14C22 12.3 20.7 11 19 11ZM16 11H5C4.4 11 4 10.6 4 10C4 9.4 4.4 9 5 9H15C15.6 9 16 9.4 16 10V11ZM20 20H19C17.9 20 17 19.1 17 18C17 16.9 17.9 16 19 16H20V20Z" fill="white"/>
</svg>
