<svg width="28" height="27" viewBox="0 0 28 27" fill="none" xmlns="http://www.w3.org/2000/svg">
<path d="M26.9334 11.3332L14.9334 0.666547C14.4001 0.266547 13.7334 0.266547 13.2001 0.666547L1.20006 11.3332C0.666731 11.8665 0.533397 12.6665 1.06673 13.1999C1.3334 13.4665 1.7334 13.5999 2.00006 13.5999H3.3334V25.5999C3.3334 26.3999 3.86673 26.9332 4.66673 26.9332H23.3334C24.1334 26.9332 24.6667 26.3999 24.6667 25.5999V13.5999H26.0001C26.8001 13.5999 27.3334 13.0665 27.3334 12.2665C27.3334 11.8665 27.2001 11.5999 26.9334 11.3332ZM18.0001 24.2665H10.0001V20.2665C10.0001 17.9999 11.7334 16.2665 14.0001 16.2665C16.2667 16.2665 18.0001 17.9999 18.0001 20.2665V24.2665Z" fill="#0053BE"/>
</svg>
