<svg width="24" height="24" viewBox="0 0 24 24" fill="none" xmlns="http://www.w3.org/2000/svg">
<path d="M17.9999 1.55969C13.3199 -1.08035 7.55978 -0.240339 3.71973 3.23971V1.19968C3.71973 0.479671 3.23972 -0.000335693 2.51971 -0.000335693C1.7997 -0.000335693 1.3197 0.479671 1.3197 1.19968V6.59975C1.3197 7.31976 1.7997 7.79977 2.51971 7.79977H7.91979C8.6398 7.79977 9.1198 7.31976 9.1198 6.59975C9.1198 5.87974 8.6398 5.39974 7.91979 5.39974H5.03975C6.83977 3.47971 9.35981 2.3997 11.9998 2.3997C17.2799 2.3997 21.6 6.71976 21.6 11.9998C21.6 12.7198 22.08 13.1998 22.8 13.1998C23.52 13.1998 24 12.7198 24 11.9998C24 7.67977 21.72 3.71971 17.9999 1.55969ZM21.48 16.1999H16.0799C15.3599 16.1999 14.8799 16.6799 14.8799 17.3999C14.8799 18.1199 15.3599 18.5999 16.0799 18.5999H18.9599C17.1599 20.5199 14.6399 21.6 11.9998 21.6C6.71977 21.6 2.39971 17.2799 2.39971 11.9998C2.39971 11.2798 1.91971 10.7998 1.1997 10.7998C0.479686 10.7998 -0.000320435 11.2798 -0.000320435 11.9998C-0.000320435 18.5999 5.39975 24 11.9998 24C15.1199 24 17.9999 22.8 20.28 20.6399V22.8C20.28 23.52 20.76 24 21.48 24C22.2 24 22.68 23.52 22.68 22.8V17.3999C22.68 16.6799 22.08 16.1999 21.48 16.1999Z" fill="#A4AAB1"/>
</svg>
