<svg width="24" height="24" viewBox="0 0 24 24" fill="none" xmlns="http://www.w3.org/2000/svg">
<path d="M22.8 0H1.2C0.48 0 0 0.48 0 1.2V22.8C0 23.52 0.48 24 1.2 24H22.8C23.52 24 24 23.52 24 22.8V1.2C24 0.48 23.52 0 22.8 0ZM18 13.2H13.2V18C13.2 18.72 12.72 19.2 12 19.2C11.28 19.2 10.8 18.72 10.8 18V13.2H6C5.28 13.2 4.8 12.72 4.8 12C4.8 11.28 5.28 10.8 6 10.8H10.8V6C10.8 5.28 11.28 4.8 12 4.8C12.72 4.8 13.2 5.28 13.2 6V10.8H18C18.72 10.8 19.2 11.28 19.2 12C19.2 12.72 18.72 13.2 18 13.2Z" fill="#A4AAB1"/>
</svg>
