<svg width="24" height="24" viewBox="0 0 24 24" fill="none" xmlns="http://www.w3.org/2000/svg">
<path d="M22.8005 2.3997H19.2004V1.19968C19.2004 0.479671 18.7204 -0.000335693 18.0004 -0.000335693H6.00023C5.28022 -0.000335693 4.80022 0.479671 4.80022 1.19968V2.3997H1.20017C0.480159 2.3997 0.000152588 2.8797 0.000152588 3.59971V7.19976C0.000152588 9.8398 2.16018 11.9998 4.80022 11.9998H6.60024C7.68026 13.1998 9.12028 14.0399 10.8003 14.2799V16.7999H9.60028C7.56026 16.7999 6.00023 18.3599 6.00023 20.3999V22.8C6.00023 23.52 6.48024 24 7.20025 24H16.8004C17.5204 24 18.0004 23.52 18.0004 22.8V20.3999C18.0004 18.3599 16.4404 16.7999 14.4003 16.7999H13.2003V14.2799C14.7604 14.0399 16.3204 13.1998 17.4004 11.9998H19.2004C21.8404 11.9998 24.0005 9.8398 24.0005 7.19976V3.59971C24.0005 2.8797 23.5205 2.3997 22.8005 2.3997ZM4.80022 9.59979C3.4802 9.59979 2.40019 8.51978 2.40019 7.19976V4.79973H4.80022V7.19976C4.80022 8.03977 4.92022 8.87978 5.28022 9.59979H4.80022ZM14.4003 19.1999C15.1204 19.1999 15.6004 19.6799 15.6004 20.3999V21.6H8.40027V20.3999C8.40027 19.6799 8.88027 19.1999 9.60028 19.1999H14.4003ZM21.6004 7.19976C21.6004 8.51978 20.5204 9.59979 19.2004 9.59979H18.8404C19.0804 8.87978 19.2004 8.03977 19.2004 7.19976V4.79973H21.6004V7.19976Z" fill="#A4AAB1"/>
</svg>
