<svg width="20" height="25" viewBox="0 0 20 25" fill="none" xmlns="http://www.w3.org/2000/svg">
<path d="M17.2013 13.4446V9.60591C17.2013 6.12713 14.6822 3.12818 11.2034 2.52839V1.20886C11.2034 0.489109 10.7236 0.00927734 10.0039 0.00927734C9.28411 0.00927734 8.80428 0.489109 8.80428 1.20886V2.52839C5.3255 3.12818 2.80639 6.12713 2.80639 9.60591V13.4446C1.36689 13.9244 0.407227 15.2439 0.407227 16.8034V19.2025C0.407227 19.9223 0.887058 20.4021 1.60681 20.4021H5.3255C5.92529 22.9212 8.56437 24.4807 11.0835 23.8809C12.7629 23.4011 14.0824 22.0815 14.5623 20.4021H18.4009C19.1207 20.4021 19.6005 19.9223 19.6005 19.2025V16.8034C19.6005 15.2439 18.6408 13.9244 17.2013 13.4446ZM10.0039 21.6017C9.16416 21.6017 8.32445 21.1219 7.96458 20.4021H12.1631C11.6833 21.1219 10.8436 21.6017 10.0039 21.6017Z" fill="white"/>
</svg>
