<svg width="87" height="28" viewBox="0 0 87 28" fill="none" xmlns="http://www.w3.org/2000/svg">
<circle cx="44" cy="14" r="14" fill="#0053BE"/>
<path d="M38.836 19L41.884 10.696H40.288L38.92 14.668C38.512 15.856 38.14 16.96 37.96 17.704H37.936C37.756 16.888 37.42 15.82 37.024 14.644L35.716 10.696H34.048L37 19H38.836ZM43.6616 19.612L46.9856 10.576H45.7256L42.3896 19.612H43.6616ZM47.8851 16.612C48.0771 18.04 49.1091 19.108 51.2091 19.108C53.3451 19.108 54.4371 18.064 54.4371 16.612C54.4371 15.484 53.9451 14.572 51.5571 14.008C50.1771 13.684 49.7811 13.42 49.7811 12.772C49.7811 12.112 50.2611 11.764 51.0891 11.764C52.2051 11.764 52.5531 12.328 52.6611 12.916H54.2331C54.1131 11.752 53.2611 10.576 51.1371 10.576C49.2051 10.576 48.1851 11.572 48.1851 12.94C48.1851 14.08 48.7851 14.848 50.9331 15.364C52.4451 15.712 52.8411 16.072 52.8411 16.792C52.8411 17.464 52.3971 17.92 51.3291 17.92C50.2851 17.92 49.6611 17.5 49.4571 16.612H47.8851Z" fill="#FAFCFF"/>
<path d="M31 11H0V17H31V11Z" fill="url(#paint0_linear_23_79)"/>
<path d="M57 11H87V17H57V11Z" fill="url(#paint1_linear_23_79)"/>
<defs>
<linearGradient id="paint0_linear_23_79" x1="30" y1="14" x2="-9.39891e-07" y2="14" gradientUnits="userSpaceOnUse">
<stop stop-color="#0053BE"/>
<stop offset="1" stop-color="#0053BE" stop-opacity="0"/>
</linearGradient>
<linearGradient id="paint1_linear_23_79" x1="57.9677" y1="14" x2="87" y2="14" gradientUnits="userSpaceOnUse">
<stop stop-color="#0053BE"/>
<stop offset="1" stop-color="#0053BE" stop-opacity="0"/>
</linearGradient>
</defs>
</svg>
